<?xml version="1.0" encoding="UTF-8" standalone="no"?>
<!-- Created with Inkscape (http://www.inkscape.org/) -->

<svg
   xmlns:dc="http://purl.org/dc/elements/1.1/"
   xmlns:cc="http://creativecommons.org/ns#"
   xmlns:rdf="http://www.w3.org/1999/02/22-rdf-syntax-ns#"
   xmlns:svg="http://www.w3.org/2000/svg"
   xmlns="http://www.w3.org/2000/svg"
   xmlns:sodipodi="http://sodipodi.sourceforge.net/DTD/sodipodi-0.dtd"
   xmlns:inkscape="http://www.inkscape.org/namespaces/inkscape"
   width="913.09344"
   height="681.24304"
   id="svg2"
   version="1.1"
   inkscape:version="0.47 r22583"
   sodipodi:docname="raccoon.svg"
   style="display:inline">
  <title
     id="title4064">raccoon</title>
  <defs
     id="defs4">
    <inkscape:perspective
       sodipodi:type="inkscape:persp3d"
       inkscape:vp_x="0 : 526.18109 : 1"
       inkscape:vp_y="0 : 1000 : 0"
       inkscape:vp_z="744.09448 : 526.18109 : 1"
       inkscape:persp3d-origin="372.04724 : 350.78739 : 1"
       id="perspective10" />
    <inkscape:perspective
       id="perspective2956"
       inkscape:persp3d-origin="0.5 : 0.33333333 : 1"
       inkscape:vp_z="1 : 0.5 : 1"
       inkscape:vp_y="0 : 1000 : 0"
       inkscape:vp_x="0 : 0.5 : 1"
       sodipodi:type="inkscape:persp3d" />
  </defs>
  <sodipodi:namedview
     id="base"
     pagecolor="#ffffff"
     bordercolor="#666666"
     borderopacity="1.0"
     inkscape:pageopacity="0.0"
     inkscape:pageshadow="2"
     inkscape:zoom="0.98994949"
     inkscape:cx="330.95339"
     inkscape:cy="382.16282"
     inkscape:document-units="px"
     inkscape:current-layer="layer2"
     showgrid="false"
     inkscape:window-width="1920"
     inkscape:window-height="1152"
     inkscape:window-x="0"
     inkscape:window-y="0"
     inkscape:window-maximized="1" />
  <metadata
     id="metadata7">
    <rdf:RDF>
      <cc:Work
         rdf:about="">
        <dc:format>image/svg+xml</dc:format>
        <dc:type
           rdf:resource="http://purl.org/dc/dcmitype/StillImage" />
        <dc:title>raccoon</dc:title>
        <cc:license
           rdf:resource="http://creativecommons.org/licenses/publicdomain/" />
        <dc:date>2011-01-22</dc:date>
        <dc:creator>
          <cc:Agent>
            <dc:title>tzunghaor (Prim András)</dc:title>
          </cc:Agent>
        </dc:creator>
        <dc:publisher>
          <cc:Agent>
            <dc:title>openclipart.org</dc:title>
          </cc:Agent>
        </dc:publisher>
        <dc:subject>
          <rdf:Bag>
            <rdf:li>raccoon</rdf:li>
            <rdf:li>animal</rdf:li>
            <rdf:li>mammal</rdf:li>
            <rdf:li>cartoon</rdf:li>
          </rdf:Bag>
        </dc:subject>
      </cc:Work>
      <cc:License
         rdf:about="http://creativecommons.org/licenses/publicdomain/">
        <cc:permits
           rdf:resource="http://creativecommons.org/ns#Reproduction" />
        <cc:permits
           rdf:resource="http://creativecommons.org/ns#Distribution" />
        <cc:permits
           rdf:resource="http://creativecommons.org/ns#DerivativeWorks" />
      </cc:License>
    </rdf:RDF>
  </metadata>
  <g
     inkscape:groupmode="layer"
     id="layer2"
     inkscape:label="vector"
     style="display:inline"
     transform="translate(130.06139,-245.45938)">
    <path
       style="fill:#000000;fill-opacity:1;stroke:none"
       d="m 285.21875,244.21875 c -24.13281,0.30763 -41.91932,7.69372 -59.09375,13 -10.66828,5.23082 -8.11562,-3.01066 -10.36168,-3.80232 -7.00192,1.00032 -11.1653,12.27594 -15.79457,17.67732 -10.71891,3.48576 -1.98127,-8.72109 -12.4375,-0.28125 l -33.875,23.5 c -3.21996,-8.79573 -8.91446,-14.76058 -17.4375,-18.62495 -7.1117,-1.77117 -16.29505,2.65117 -18.6875,10.0625 -3.97211,14.82673 -15.8085,24.42226 -24.65625,36.125 -6.892537,10.43558 -9.923537,23.00132 -17.3125,33.125 L 47.90625,333.5 36.125,306.6875 c -1.992756,-4.53497 -7.479173,-7.21536 -12.28125,-6 -4.321835,1.39534 -6.372604,2.10273 -9.6875,-0.96875 C 11.418697,296.85585 8.0266736,291.98618 1.5,283.0625 c -2.37549421,-4.07911 -6.0435085,-9.6222 -9.6875,-13.59375 -3.891498,-4.46988 -9.450733,-5.84356 -15,-4.03125 -5.90089,2.74839 -7.810808,8.62321 -7.8125,14.71875 -0.330588,9.37989 3.033235,17.93078 6.34375,26.5 1.562813,4.50213 1.925589,7.59338 1.125,10.03125 -7.298527,22.22473 -8.095427,46.44741 -8.375,66.71875 -33.880874,30.93901 -33.871201,43.38005 -38.3125,54.5625 -10.32244,4.83444 -22.341225,9.28509 -33.5625,15.75 -12.37775,7.13119 -24.28288,17.99171 -27.34375,34.59375 -1.02382,8.61651 6.31494,13.89266 14.28125,11.75 2.94235,-1.15472 5.98492,-2.30977 8.90625,-3.3125 -0.91473,6.17168 -0.78435,10.85098 -1.40625,13.15625 -1.48842,6.52751 2.52394,11.83769 8.8125,13.25 l 8.40625,1.125 c 11.315174,-0.58768 20.868731,1.74829 30.25,7.9375 4.747242,3.39074 9.685326,8.13537 16.15625,12.59375 -2.500991,6.96696 -2.573233,14.1184 -1.4375,19.9375 3.702745,8.08002 2.519821,19.30583 7.9375,26.59375 6.765625,7.08115 15.687614,6.59407 23.4375,1.78125 2.60618,-1.65571 3.130104,-2.06184 4.71875,-3.15625 2.1308161,1.31583 4.738697,1.83938 7.2122638,1.44792 12.835527,-7.50442 13.0605167,-8.40464 29.4439862,-6.85417 12.245134,1.18968 29.367302,2.35743 49.96875,-4.78125 L 83.75,593.4375 c -2.231805,10.27494 -4.94814,22.10444 -9.0625,32.625 -4.628327,11.8348 -10.902736,20.96885 -17.6875,24.53125 -11.014587,3.52712 -19.325003,3.17552 -28.1875,8.78125 -4.440851,3.7558 -6.083859,9.17492 -6.53125,13 0.289653,7.36531 -3.175487,15.96761 0.61476,22.6301 2.203914,3.02722 6.105315,4.72562 9.82274,4.27615 l 4.59375,-0.5625 c 2.658409,5.25023 7.327305,7.47267 13.125,6.6875 2.447134,-0.69253 7.159877,-0.77527 12.3125,-0.96875 l 6.71875,2.25 c 3.570739,1.19714 7.761471,0.30179 10.53125,-2.25 12.438898,-10.51369 24.00281,-20.52748 31.53125,-34.9375 2.57092,-5.24692 3.52955,-13.56357 0.625,-22.5 -1.73348,-10.63377 9.82927,-19.6066 15.9375,-27.0625 8.70382,-11.04703 15.04821,-19.14012 21.59375,-28.6875 4.57934,1.23481 8.71709,1.33498 12.78125,-1.4375 13.45824,3.90166 26.53231,0.75765 39.53125,-3.03125 l 10.375,7.875 c 4.55519,26.54685 -2.61062,45.1487 -6.9375,69.28125 -7.87429,-0.86707 -15.47383,-0.38709 -23.0625,1.875 -5.52027,2.54743 -10.29876,7.43856 -13.96875,14.09375 -4.60852,8.35711 -6.19175,15.85581 -5.1875,22.15625 1.80193,8.79087 7.15769,19.6377 17.625,16.65625 2.26249,3.48151 4.93704,6.02979 9.09361,6.97527 L 202.25,720.375 c 5.11397,2.09004 9.89218,4.66345 15.4375,2.875 l 16.375,-6.8125 c 4.27526,-1.78324 7.04319,-6.6305 6.40625,-11.21875 9.00415,-7.0093 11.93298,-15.87696 11.87505,-27.12495 -1.31494,-5.2483 -6.0848,-8.24848 -8.625,-12.71875 -0.10364,-5.08865 2.73316,-10.49599 4.53125,-15.28125 l 3.8125,7.21875 c 1.27892,2.42042 3.53416,4.30675 6.14251,5.13773 2.60836,0.83098 5.53915,0.59684 7.98249,-0.63773 4.34375,4.03615 8.6875,3.14131 13.03125,2.5625 3.56416,3.54878 7.76181,4.04737 12.40625,2.59375 L 309,658.875 c 6.76928,1.24467 12.37237,-0.52957 15.4375,-7.125 l 3.96875,-13.59375 40.8125,-28.5625 c 8.50813,5.62903 16.33845,8.77458 23.625,10.84375 -5.92848,1.8564 -13.25459,0.46468 -19.5,0.25 -7.22935,-0.18591 -16.0679,-0.59192 -23.125,6.9375 -15.28768,16.31088 -15.28687,33.32602 -15.78125,45 -0.0457,6.29523 4.50819,10.52153 10.5625,11.03125 5.67199,0.40505 10.92826,-0.90785 16.03125,-3.34375 3.80769,4.14692 7.98648,6.29449 13.71875,4.96875 l 4.75,-1.71875 10.15625,3.1875 c 10.01895,2.48956 19.21022,-4.21996 26.21875,-10.5 5.93636,-5.73607 10.85923,-12.50736 15.21875,-18.65625 20.57047,-29.01366 44.49611,-43.80086 69.15625,-62.09375 1.84442,-1.36819 3.29466,-3.19782 4.40625,-5.15625 l 15.375,25 c 17.06322,20.62079 10.43661,1.23428 18.03125,0.75 5.11174,2.65588 7.77724,9.16762 13.34375,12.3125 2.26313,6.47462 5.6003,12.32746 9.875,17.28125 1.87577,2.17517 7.48983,9.60406 9.05445,7.19535 2.8694,-4.41738 4.25813,-4.50877 6.32055,-6.50785 3.34556,4.82555 5.31421,9.77419 6.25,15.1875 1.47403,8.52692 0.44383,18.4113 -2.15625,29.25 -5.20016,21.6774 -17.72642,54.32959 -20.6664,79.54997 -0.95581,8.96322 2.50419,-0.0772 5.82265,2.04378 -5.47673,21.28771 0.20285,45.58574 11.03125,68.59375 13.06773,27.76611 34.05257,54.4139 57.125,73.15625 2.18889,1.77568 8.30887,5.08007 7.90741,2.29025 -1.48666,-10.33101 6.15505,-11.11995 7.86938,-13.35721 7.93276,5.11383 1.23952,21.53021 7.83635,24.38941 3.71668,1.11887 8.0182,-0.0159 10.69936,-2.82245 6.44016,-6.7775 14.20243,-13.87071 20.21875,-22.65625 1.87757,-7.44055 7.57168,-6.00509 11.1875,-4.90625 2.08197,-9.60181 2.16132,-12.64732 14.91182,-1.65801 4.44982,2.50811 3.66941,-5.44424 0.52568,-18.12324 69.81753,-73.70013 79.01115,-160.83916 61.1875,-219.5625 3.00258,-2.85549 13.66729,5.56585 2.59375,-11.4375 C 767.91708,617.44662 748.10361,595.15914 731.09375,573.5 733.12227,569.11226 749.82994,570.9673 727.75,560.53125 659.20421,510.25374 612.10148,496.83512 564.375,479.59375 529.00293,466.81546 512.30125,450.1654 500.84375,431.125 489.38625,412.0846 483.76947,389.79665 473.15625,367.15625 452.90223,323.94983 408.48826,291.47141 372.625,274.5 c -0.0434,-2.09755 -9.46963,-2.68701 -1.125,-5.90625 3.39904,-1.3113 -4.76001,-5.79739 -8.375,-6.25 -15.3611,-1.01957 9.31962,-7.22755 -11.21875,-6.625 -8.66509,-0.41474 -15.36128,-1.93255 -15.96875,-2.21875 -0.34589,-0.16493 -0.70076,-0.31105 -1.0625,-0.4375 -19.16611,-6.60568 -35.38699,-9.02565 -49.65625,-8.84375 z m 2.09375,338.46875 c 0.89029,0.0387 2.06138,0.22354 3.0625,0.3125 3.99593,6.06888 9.87124,9.98314 15.40625,12.15625 l -10.3125,7.71875 -18.78125,-1.75 c -0.62336,-0.0555 -1.25164,-0.0555 -1.875,0 1.49581,-3.62238 2.79792,-7.52063 3.5,-12.1875 0.92948,-6.17841 1.28218,-5.3268 3.53125,-5.96875 1.12453,-0.32097 3.06137,-0.38591 5.46875,-0.28125 z"
       id="path3891"
       sodipodi:nodetypes="cccccccccccccccccccsccsccccccccccccccccscccccccccccccccccccscccccccccccscccccccccscccccccssccccsscssccscscccccccccccssscsccsccccccccssc" />
    <path
       style="fill:#ffffff;fill-opacity:1;stroke:none"
       d="m -18.59375,275.09375 c -1.751716,0.0168 -2.529413,3.45241 -1.03125,13.625 1.227686,8.33604 9.9182938,19.82545 6.15625,31.28125 -7.122552,21.68887 -7.728059,47.09582 -7.96875,68.0625 -40.221225,35.68559 -32.529332,41.90129 -40.71875,57.875 -23.590704,11.77951 -53.83975,18.66524 -58.5625,44.28125 11.81555,-4.637 26.37708,-9.88268 31.59375,-5.28125 -11.30858,6.91812 -7.457977,18.2959 -10,27.71875 l 8.40625,1.125 c 31.42106,-0.89339 38.495251,15.26 54.90625,24.875 l -0.25,-2.71875 C 18.336693,550.8121 55.848259,511.83632 72.84375,502 81.148602,490.51105 70.253623,491.80385 67.5,487.71875 c -2.415574,-3.58359 -2.23713,-5.2869 3.59375,-5.25 1.943627,0.0123 4.534013,0.19761 7.84375,0.59375 6.501855,6.34957 14.644064,11.25322 13.90625,23.9375 -3.699907,2.11812 -7.554188,5.92284 -10.34375,-1.0625 -24.443465,30.23743 -78.7379415,52.88388 -116.3125,38.125 -6.820423,10.46974 -2.523904,20.93777 0.59375,31.40625 4.283501,0.73882 8.591499,1.16603 12.875,-2.03125 4.65955,-3.47797 6.237274,-3.29633 7.5,-6.0625 l 3.1875,3.1875 c 9.91388064,-3.17716 10.49166606,-7.062 42.5,-5.34375 38.00617,2.04023 68.92264,-22.02626 75,-46.0625 2.10725,-8.33426 4.74408,-11.36185 6.96875,-11.40625 3.7078,-0.074 6.31979,8.14146 3.75,13.90625 -2.60447,5.8426 1.55091,15.18588 -32.5,41.78125 L 81.53125,569.21875 95,591.65625 c -4.708707,21.94637 -12.165935,57.32416 -33.09375,68.3125 -7.861997,4.12801 -13.719433,4.4624 -16.75,4.90625 -18.813309,0.22323 -9.630338,15.09673 -13.71875,23.90625 l 11.40625,-1.40625 4.71875,7.84375 c 5.238095,-1.48237 11.480655,-1.19994 16.71875,-1.4375 l 7.84375,2.625 L 70.71875,692 c 8.646894,-10.46318 20.516407,-15.29011 25.71875,-31.78125 2.151902,-6.82141 -4.878187,-9.75896 0.34375,-23.21875 4.72734,-12.18492 13.74472,-23.9193 19.03125,-36.03125 6.93557,-15.89006 -0.29391,-21.54658 1.34375,-37.90625 C 102.34451,559.22183 97.819401,561.84546 90,562.375 l 8.9375,-6.4375 c 13.109,-2.57239 22.83975,1.58362 32.84375,3.9375 6.07143,1.42857 16.78125,-2.15625 16.78125,-2.15625 7.60709,-1.64741 2.19903,-6.39171 2.875,-9.65625 2.73466,-13.20677 14.26517,-5.40225 24.625,-2.84375 l -0.71875,-11.78125 c -0.23474,-3.87313 -2.27775,-13.56858 13.9375,-10 l -2.84375,-12.5 c -7.57464,-6.09838 -14.72431,-6.77361 -20.97636,-9.20641 -1.54313,-0.60046 -4.67908,5.4441 -6.2711,6.24178 -0.29034,-9.82835 -4.99576,-13.15456 -10.97129,-22.03537 5.37976,-1.0399 10.11257,-2.95177 12.40398,-6.29491 5.39704,0.57266 14.66662,4.33743 12.76023,-1.55857 10.51422,-2.82632 22.58816,0.40143 31.61704,8.19723 -4.46289,-10.60105 -10.08096,-21.30334 -23.9375,-32.84375 -9.54652,5.20925 -17.50191,0.35332 -22.73291,13.22587 -6.13167,-11.11231 -8.14586,-1.48371 -13.01281,3.47765 -1.97145,-4.36241 -8.63256,-16.07093 -11.73059,-9.83511 -2.76552,-2.77323 -4.70987,-5.98663 -7.52369,-9.02466 20.18089,-10.81472 24.76091,-4.71202 36.09375,-17.125 l -6.8125,-5.375 c -4.68111,-3.69563 -0.89454,-5.616 2.46875,-5.625 0.91248,-0.002 1.79219,0.12546 2.46875,0.40625 2.40913,-13.67287 6.50927,-27.67541 2.96875,-40.15625 -5.90008,-20.79863 -11.16396,-51.07452 -14.15625,-73.59375 l -6.8125,-14.9375 c -5.01296,-11.00241 -13.09801,-10.79891 -14.6875,-5.875 -5.48042,16.97728 -15.27583,26.61022 -25.78125,38.5625 -6.770837,10.63988 -13.079269,31.19378 -21.40625,37.78125 -5.315208,5.19491 -13.804669,4.42482 -23.09375,6.125 -4.565712,0.83566 -5.513958,-3.13777 2.15625,-5 2.200575,-0.56789 6.379647,-1.6075 9.53125,-3.1875 L 39.28125,340.21875 26.4375,310.9375 l -5.71875,1.4375 0.71875,5 C 6.726077,309.55403 5.8609778,306.93956 -7.03125,289.3125 c -1.3310413,-1.81989 -8.218315,-14.25072 -11.5625,-14.21875 z m 14.4375,31.28125 c 0.1882311,0.0136 0.3673241,0.10185 0.5,0.25 15.7314,17.56682 34.047865,37.79723 39,62 1.751334,8.55937 -8.579325,2.06145 -14.125,-0.125 2.634447,3.46794 2.776275,5.28504 1.375,6.0625 -5.531626,-2.2028 -10.108825,0.8522 -15.03125,2 0.3213678,-1.78279 -2.5141565,-3.18345 6.3125,-5.28125 2.152248,-0.81389 -1.695237,-4.81867 -4.28125,-7.84375 5.447852,-2.98667 11.731483,-0.19549 17.8125,1.25 -6.312951,-13.2907 -14.269324,-26.34287 -31.4375,-50.25 -3.6293483,-5.05397 -1.4426175,-8.1578 -0.125,-8.0625 z m 132.875,0.8125 c 0.84197,-0.13949 1.38501,0.74331 1.09375,3.375 -2.6381,23.83723 -18.07258,44.90928 -29.09375,66.625 7.86322,4.95265 9.52079,0.65013 13.375,-2.15625 7.74359,-5.63837 9.85876,-16.19853 11.8125,-7.84375 1.02676,4.39074 -2.49465,10.59214 -5.1875,14.625 3.81329,3.50814 8.52647,6.15211 15.1875,6.8125 -1.14462,1.48517 3.47986,0.23103 -5.71875,5.53125 1.84848,1.58622 5.73536,3.8025 10.34375,4.46875 l -1.78125,3.5625 5.34375,6.25 c 2.92682,3.41462 -0.41157,4.95129 -3.5625,4.28125 -15.60568,-3.31854 -5.28164,-15.54227 -17.3125,-13.40625 l 0,-8.90625 c -3.35361,-1.07272 -7.17097,-3.501 -9.65625,-1.96875 l -1.40625,-4.46875 c -3.17434,3.33858 -5.87652,7.19723 -16.4375,2.6875 l 0,4.28125 c 0,4.15272 -5.822753,3.5954 -5,-2.15625 4.204987,-29.39599 26.12314,-43.36975 34.46875,-77.3125 0.89332,-2.203 2.44872,-4.10191 3.53125,-4.28125 z M 280,308.0625 c -0.74433,4.82894 2.54516,8.66617 7.15625,12.15625 -4.13325,-1.95278 -9.21717,0.7674 -12.15625,-7.15625 -7.29168,4.9752 -21.4699,8.80413 -21.4375,15 42.13671,40.08459 47.55533,77.54519 52.875,115 l -5.71875,7.875 -16.4375,-19.28125 c -4.09628,-3.52798 -6.43327,-0.059 -9.28125,1.40625 -9.8561,-22.61719 -14.94043,-54.60204 -58.5625,-80.6875 -4.65627,1.87793 -10.66542,1.07244 -12.875,7.84375 L 210,369.5 c -5.43534,0.17946 -10.87716,2.97382 -16.3125,-1.75 -15.13228,10.00624 -21.67439,35.07211 -31.6875,56.84375 34.48558,21.83462 43.33829,52.29607 54.78125,65.96875 5.32989,6.36842 -1.32188,11.82823 -5.34375,10.71875 l -10.375,-2.84375 c -1.39113,2.29264 -3.25292,2.63117 -2.84375,12.125 l 4.625,14.65625 c 3.3647,10.61177 -11.66667,5.96131 -17.5,8.9375 1.20586,8.06174 1.4116,18.58678 -7.5,17.5 l -14.625,-1.78125 c -9.23403,-1.1261 7.14386,9.033 -5.71875,11.40625 -9.03303,1.66667 -17.89859,3.33333 -27.84375,5 l 5.6875,4.125 c 8.03599,-0.66884 18.44925,-0.0915 18.71875,-4.9375 14.53117,11.9434 26.16662,7.66421 37.375,1 -1.9944,-2.60309 -3.68557,-5.64543 -3.5625,-10.34375 0.0951,-3.63107 0.65934,-4.90755 1.4375,-4.84375 1.00049,0.0821 2.37378,2.38831 3.625,4.84375 6.6741,13.09756 24.23623,19.01775 27.125,31.0625 l 2.09375,1.59375 c 6.97851,33.3825 -3.13547,55.38785 -7.15625,81.4375 -11.44249,11.82124 -25.65322,-6.41845 -37.34375,14.78125 -7.77545,14.10004 -2.70158,19.01428 -0.5,23.78125 l 7.21875,-2.9375 7.0625,9.375 9.1875,-6.8125 13,5.0625 16.375,-6.8125 c -1.2643,-9.31032 6.12472,-9.70396 11.03125,-17.59375 7.59414,-12.21153 -12.42896,-13.1031 -7.125,-30.03125 4.93591,-15.75346 9.84872,-26.39226 14.375,-34.375 5.37237,-26.35276 13.78228,-51.56986 18.65625,-53.78125 6.378,-2.94133 5.2085,-7.14842 6.3125,-10.96875 -14.55782,-9.53327 -22.65749,-23.59867 -18.1875,-49 2.33824,-13.28741 9.72846,-13.67377 9.09375,-9.0625 -7.91049,57.47056 36.72321,62.99107 39.9375,66.5625 l 44.40625,-10.5 6.5625,4.03125 c -8.74475,-17.04655 -0.0717,-27.74748 0.5,-41.40625 -1.39624,-3.8925 -5.43477,0.19804 -8.5625,1.5 16.23088,-42.17163 37.24107,-77.09183 80.8125,-77.78125 0.6854,3.74748 -7.45074,5.35607 -14.34375,8.15625 16.56073,4.34831 19.8606,8.87762 28.28125,16.84375 l -0.25,8.375 -13.1875,12.59375 c -7.27983,-8.44622 -18.18719,-17.4811 -39.21875,-24.09375 -13.40184,6.98071 -19.68368,22.05726 -26.625,38.03125 13.65066,6.37498 33.81574,7.94144 50.1875,9.78125 -0.63325,5.1496 1.48164,9.3801 6.5625,12.625 -8.9116,2.12901 -12.00881,5.71902 -27.6875,6.15625 l -1.09375,4.96875 -6.0625,-6.0625 c -6.97073,-0.13604 -14.84486,-2.02639 -22.75,-4.03125 -2.4498,10.81149 -7.90166,18.34771 -0.5,39.90625 15.99408,-0.50508 32.66157,2.58271 48,-1.53125 5.72557,-1.53567 7.84299,-5.42736 9.9375,-3.21875 l -5.90625,8.78125 c 3.70389,8.23764 7.38986,10.31132 11.09375,14.125 -16.36484,1.54752 -27.06326,5.94155 -49.09375,4.65625 4.22103,7.55292 31.62837,22.88972 50.125,14.0625 8.67872,-4.14178 16.65625,-0.53125 16.65625,-0.53125 0,0 10.7087,2.15307 -5.03125,6.5625 -7.718,2.16214 -14.63457,3.70171 -21.46875,5.1875 -2.49592,8.99865 -13.5185,11.17876 -21.15625,16.0625 -14.20403,1.22957 -30.25819,-3.30536 -36.34375,3.1875 C 344.81805,648.84128 345.52348,660.70136 345,673.0625 l 2.84375,0 c 7.6461,0.77022 9.76429,-3.98484 13.71875,-6.90625 3.33825,3.54745 4.99813,4.41393 9.5625,9.1875 l 8.15625,-2.96875 13.5625,4.28125 c 10.82784,0.20705 21.08457,-13.14164 29.625,-25.1875 14.06194,-19.8337 29.61414,-33.42127 45.375,-45.375 4.6423,-8.43905 10.12228,-17.19817 16.25,-25.15625 7.83911,-10.18067 -1.81104,-9.15471 -4.4375,-11.4375 -3.88107,-3.37325 -10.10401,-5.26441 -7.5,-15 6.43043,-12.8125 12.29105,-7.68189 19.28125,-38.5625 0.71539,-3.16037 1.49086,-4.4563 2.25,-4.5 2.27743,-0.13105 4.42417,10.86751 4.53125,15.5625 0.2356,10.32923 -2.3053,20.63295 -9.65625,28.25 0.83847,0.0461 1.78921,0.23403 2.875,0.6875 7.54966,11.06122 14.74087,23.8611 23.5625,28.5625 l 8.75,15.75 c 1.91578,-4.20904 4.49444,-7.91789 8.75,-10.375 -1.4287,-4.69747 -6.80433,-3.76324 -8.375,-8.0625 11.08492,1.47764 5.09718,-4.43465 3.375,-10.90625 l 5.21875,-4.875 c -0.47871,0.0934 0.0578,-4.25345 -1.28125,-8.3125 2.85714,3.33333 4.76637,3.33333 5.71875,0 0.57539,-4.74206 2.2753,-1.35326 2.84375,-14.28125 7.72133,1.93289 5.00212,-6.06478 13.75,-6.59375 -0.57736,-3.48452 -3.49299,-8.67419 -5.53125,-12.34375 2.67129,-0.12594 5.11443,2.74572 8.21875,0.71875 5.6607,-4.66295 10.41526,-9.67575 8.5625,-17.15625 l 6.78125,3.21875 L 575,507.375 l 7.84375,1.0625 15.875,-5.34375 c -12.7466,-4.69374 -25.23249,-8.97277 -37.9375,-13.5625 -72.60293,-26.22808 -76.95657,-72.63352 -95.75,-114.65625 -6.88761,5.19409 -14.47395,9.85505 -28.59375,9.625 -7.18374,15.10249 -6.22082,14.71636 -20.25,38.53125 -1.91937,3.25816 -2.1236,9.46698 -4.75,13.625 -5.88236,-5.05608 -11.43918,-8.02945 -18.59375,-20.71875 -4.60041,1.05979 -9.71034,3.18671 -15.65625,6.9375 5.47643,-29.6257 28.33536,-50.84574 17.09375,-91.21875 -6.90476,-5.5359 -13.81399,-12.33037 -20.71875,-11.4375 l 0,7.15625 -5,-7.15625 c -6.42857,-3.66872 -12.85268,-3.88334 -19.28125,-3.5625 9.82373,22.68087 14.92309,38.60227 17.53125,53.5625 l -7.625,-2.8125 c 4.2931,20.71798 0.62733,40.21099 -2.75,57.09375 l -10,-14.28125 c -9.01871,-3.39388 -8.52349,4.63074 -11.4375,8.5625 l -3.4375,-15.71875 c 2.4264,-38.63705 -5.26569,-60.32954 -25.125,-92.125 l -13.59375,-0.71875 0,4.28125 L 280,308.0625 z M 78.4375,366.59375 c -0.281449,0.13985 -0.55756,0.26942 -0.84375,0.375 0.284889,-0.10414 0.563613,-0.23706 0.84375,-0.375 z m -1.25,0.5 c -0.217723,0.0672 -0.435697,0.14109 -0.65625,0.1875 0.221104,-0.046 0.437916,-0.12078 0.65625,-0.1875 z m -135.28125,96.4375 c 1.545311,-0.0172 3.418252,1.88794 4.375,6.75 1.132393,5.75465 -2.283432,7.12808 -3.78125,5.65625 1.589519,8.26793 -2.136043,14.75823 -4.28125,21.78125 l -9.28125,4.65625 c 0,0 8.955516,-22.78881 6.0625,-26.28125 -5.576748,-6.73224 -1.157516,-6.59075 4.65625,-6.59375 -0.823142,-3.47283 0.498647,-5.94925 2.25,-5.96875 z M 625.0625,518.125 c -3.61506,-0.005 -7.37167,0.57221 -11.125,2.625 -3.6319,4.00852 -5.08435,3.59436 -5.03125,8.53125 -4.9073,-1.61031 -8.23949,-2.30864 -15.34375,0.9375 -6.02616,2.36378 -6.03448,12.38587 0.71875,18.21875 -9.46302,1.17021 -14.02137,0.71 -17.84375,0 1.2474,3.0751 -2.0869,6.09903 5.53125,9.84375 L 572.5,562 c 1.65785,2.72567 -1.13695,10.72576 2.15625,18.5625 -3.57998,-1.34374 -8.14413,-6.61521 -10,-1.0625 1.71591,7.29616 3.34634,14.85051 7.84375,12.875 l -6.4375,6.0625 c 2.37831,2.88761 -2.47734,4.3007 3.59375,10.71875 l -10,0.34375 -3.71875,7.96875 3.34375,-0.8125 c 1.22163,8.78875 4.73951,16.02882 10,22.125 l 7.15625,-8.5625 c 0.58707,0.52386 1.13427,1.06293 1.6875,1.59375 l 4.03125,-8.03125 -5.375,-20.71875 c 5.56058,-0.27125 17.1982,7.38578 14.28125,-3.90625 3.83712,-1.43764 6.21375,-3.99296 2.5,-11.09375 l 12.5,-0.6875 c 6.84554,-1.21015 5.47281,-7.00882 3.9375,-12.875 l 6.0625,2.15625 c 3.10781,-4.40267 5.41281,-8.93764 2.875,-14.28125 l 11.78125,3.1875 C 625.37932,552.96116 627.96321,548.28761 628.9375,542 c 7.34262,5.37999 13.8725,12.85885 23.90625,11.0625 L 647.5,543.4375 c 6.45569,-0.17559 13.54228,2.46332 18.21875,-5.71875 l 7.5625,-0.3125 c -12.44396,-7.17808 -24.14626,-13.14872 -35.375,-18.3125 l -0.0312,0 c -3.78205,-0.002 -8.17715,-0.96236 -12.8125,-0.96875 l -5e-5,0 z m -658.03125,58.21875 c 0.233385,0.8026 0.44609,1.60361 0.65625,2.40625 -0.208713,-0.80464 -0.422997,-1.60152 -0.65625,-2.40625 z m 714.40625,4.9375 -5.375,9.125 c -10.83819,-4.0799 -9.24457,-1.73595 -11.59375,-4.125 l -0.1875,9.46875 c -7.92424,-4.63961 -8.63806,1.73841 -8.21875,8.40625 -5.37944,-5.39797 -10.76037,-10.84055 -14.28125,-7.875 L 645,607.71875 c -8.70932,-2.139 -12.83978,2.0168 -13.9375,10.34375 -6.55704,0.12076 -13.54563,-0.29139 -11.78125,10 l 1.0625,7.15625 c -3.21488,0.59464 -4.02845,3.59952 -12.5,-1.0625 l 4.3125,16.40625 c -2.10234,3.31863 -3.68339,7.41886 -10.375,4.3125 l -5,-4.65625 -4.8125,3.75 c 1.90579,6.43483 2.4441,13.15319 2.0625,20.0625 3.13776,0.30205 7.08061,1.08352 9.53125,2.25 -1.35001,-3.80952 1.24963,-7.59673 3.59375,-11.40625 2.77905,4.72929 6.6154,6.99258 13.1875,3.1875 0.68335,-10.03094 6.54333,-14.86739 10.71875,-21.40625 0,0 2.16517,8.93304 6.09375,8.21875 3.23958,-0.58902 3.90625,-8.9375 3.90625,-8.9375 4.04762,-7.5088 8.10863,-8.66978 12.15625,-9.65625 -0.7319,1.82976 -2.19325,10.55546 4.625,12.5 5.33779,1.52232 7.44634,-18.39387 6.8125,-19.28125 2.81572,2.21675 2.83176,-4.33806 11.78125,17.15625 0.51086,-7.82825 1.69666,-15.08736 7.84375,-18.21875 2.19992,4.98957 3.92274,10.26808 10.71875,12.5 3.41855,-2.44861 4.42331,-9.71142 6.0625,-15.71875 3.02035,7.87827 6.88963,15.2445 19.28125,17.5 l 5.375,-9.65625 c 0.83236,-4.28767 3.35556,-5.149 6.0625,-5.6875 l 3.9375,10.6875 7.34375,-9.34375 c -1.85983,3.78649 4.66173,17.93779 15.15625,12.21875 0.78615,-0.42842 3.57757,-1.09689 6,-1.90625 -9.0093,-18.13499 -21.83587,-34.12008 -34.46875,-49.96875 -0.64655,2.9948 -1.63759,5.80474 -6.90625,6.15625 l -6.0625,-6.0625 c -9.53759,-2.95994 -10.0365,0.0886 -10.71875,3.21875 L 695,585.5625 l -3.9375,2.5 -9.625,-6.78125 z M 267.84375,587.375 c -0.14304,0.95079 -0.31742,1.87298 -0.5,2.75 0.18409,-0.88279 0.35592,-1.79228 0.5,-2.75 z m -0.53125,2.96875 c -0.14624,0.68574 -0.33028,1.32254 -0.5,1.96875 0.16791,-0.6399 0.35507,-1.29003 0.5,-1.96875 z M 134.125,595.0625 c -0.83813,1.11169 -1.69084,2.21361 -2.5625,3.34375 0.86321,-1.11875 1.73217,-2.24302 2.5625,-3.34375 z m 188.1875,0.90625 -23.75,17.8125 -22.84375,-2.125 -21.4375,27.125 7.15625,13.59375 7.125,-3.59375 5.71875,5 9.28125,0 3.59375,3.59375 13.1875,-6.125 c 0.004,-0.007 -0.004,-0.0239 0,-0.0312 4.19301,-6.971 11.06609,-13.97251 8.6875,-24.5625 10.19982,-3.10053 16.41152,-7.31939 22.8125,-14.21875 3.01909,-8.19265 -1.64099,-13.04894 -9.53125,-16.46875 l 0,-5e-5 z m -60.34375,7.625 c -0.33516,0.55741 -0.67554,1.10002 -1.03125,1.65625 0.35089,-0.54882 0.7004,-1.1063 1.03125,-1.65625 z M 260.5,605.9375 c -0.75568,1.15835 -1.53957,2.32342 -2.375,3.53125 0.81287,-1.17612 1.63824,-2.40169 2.375,-3.53125 z m -7.5625,11.125 c -0.64101,0.9768 -1.30396,1.99249 -1.96875,3.0625 0.66034,-1.0631 1.33198,-2.09164 1.96875,-3.0625 z m 490.625,11 -0.5,0.625 c 0.12677,-0.24988 0.29705,-0.4774 0.5,-0.625 z m -53.90625,54.21875 c -0.11631,0.0175 -0.2502,0.0439 -0.375,0.0937 -2.48497,0.99262 -7.66982,5.40135 -15.21875,8.375 -7.17989,2.82828 -14.52041,-0.13846 -21.5625,7.6875 l -5,-7.5 c -4.71591,11.68831 -15.9675,12.39899 -21.4375,25.34375 -4.98539,1.72655 -2.87356,-5.98753 -2.5,-11.40625 -3.37096,4.69282 -6.4549,10.83414 -10.71875,11.0625 l 1.4375,-10.375 c -14.40595,1.42751 -10.07716,9.95457 -18.5625,17.875 l -6.78125,6.0625 1.40625,-14.625 -6.25,1.875 c -5.16661,15.76853 -10.73931,31.64603 -12.5,46.75 l 8.40625,1 c -4.7737,9.07595 -6.33599,19.75813 -5.375,31.25 l 8.21875,-0.53125 c 15.07542,-1.01946 6.19074,-17.11944 2.15625,-28.5625 7.88884,5.34941 16.09251,9.47519 22.15625,22.125 l 0.6875,-13.5625 12.875,11.4375 5,-11.4375 7.125,12.84375 L 635,768.7812 629.28125,755.2187 c 6.77165,2.66776 12.25689,-1.11883 20.71875,10 l 10,7.15625 c -5.05875,-8.18491 -0.64974,-21.1171 1.4375,-32.875 l 9.28125,20.71875 c 7.04756,-19.90442 11.07847,-21.66425 16.4375,-31.4375 0.22155,12.07452 -3.88686,27.02527 1.40625,35.71875 3.21231,-10.45357 12.27559,-17.37869 25,-22.125 -2.28541,9.36184 -8.59454,19.51415 -2.125,27.125 l 12.125,-7.125 10.71875,12.125 6.4375,-15 2.84375,19.28125 10,-9.28125 -2.125,15 9.875,-0.46875 c 9.3752,-26.4445 12.96866,-52.43549 12.34375,-76.15625 -4.55172,-0.21542 -9.85659,1.02542 -11.15625,5.5625 -0.52963,1.84891 -0.71875,-20.375 -0.71875,-20.375 -9.42714,2.13167 -5.24608,11.06297 -6.0625,17.5 l -7.15625,-15 c -6.02476,1.32575 -11.95905,3.21005 -18.90625,-2.84375 0,0 -5.2947,5.63585 -4.65625,3.21875 0.6442,-2.43888 -12.66482,-8.02588 -21.96875,-0.4375 -2.09482,-1.66434 -1.04899,-8.93095 -1.96875,-7.78125 -2.17101,5.69258 -5.10362,7.59051 -8.21875,8.5625 0,0 0.4181,-14.54113 -3.1875,-14 l 0,5e-5 z M 577.09375,810.5 c 0.26778,1.09115 0.57081,2.18291 0.875,3.28125 -0.30339,-1.09562 -0.60783,-2.19279 -0.875,-3.28125 z m 4.6875,14.875 c 0.39579,1.04204 0.82632,2.08133 1.25,3.125 -0.42399,-1.04433 -0.85392,-2.0823 -1.25,-3.125 z m 1.4375,3.625 c 0.44492,1.08511 0.901,2.16437 1.375,3.25 -0.47431,-1.0862 -0.92979,-2.16432 -1.375,-3.25 z m 151.75,7.09375 c -1.12364,1.6738 -2.25813,3.33284 -3.4375,5 1.17394,-1.65949 2.31878,-3.33395 3.4375,-5 z M 586.375,836.1875 c 0.44497,0.95039 0.90925,1.89477 1.375,2.84375 -0.46434,-0.9462 -0.93131,-1.89615 -1.375,-2.84375 z m 12.78125,22.875 c 0.63938,0.98469 1.2801,1.9614 1.9375,2.9375 -0.65777,-0.97678 -1.29777,-1.95213 -1.9375,-2.9375 z"
       id="path2963"
       sodipodi:nodetypes="csscccccccccsscccccsccsssscccscccccccssscccscsccccsccccccccccccscsccsccsccccccsccssccccccsccscssccccccsccccccscccccccccccccccscccccccsccccssscccsccccccsscccsscccccccccccccccccccsccccscsccsccccccscsscssscccccccccccccccccccsccscccccccccccccccccccsccsccscccscccccccccccccccccccccccccccccccccccccccccccccccccccccccccccccsccsccccccccccscccccccccccccccccccccccccccsccccsccsccscccccscccccccccccccccccccccccccccccccccccccccsccccscccccsccsccsccsccsccsccsc" />
    <g
       id="g4058"
       style="fill:#000000">
      <path
         sodipodi:nodetypes="csssc"
         id="path3879"
         d="m 46.0486,442.88306 c 0,7.53154 -2.360519,15.98366 -12.331041,15.06563 -4.970838,-0.45769 -11.768922,-1.43938 -11.973897,-11.4942 -0.153503,-7.52998 6.272427,-17.20849 12.688183,-17.20849 6.415757,0 11.616755,6.10552 11.616755,13.63706 z"
         style="fill:#000000;fill-opacity:1;stroke:none;display:inline" />
      <path
         id="path3877"
         d="m -54.40625,492.65625 c -16.248923,0.18135 -35.991775,17.98533 -36.84375,36.4375 -0.862408,18.67812 14.51602,29.71345 28.125,28.28125 16.91626,-1.78025 34.5625,-22.16258 34.5625,-38.0625 0,-15.89991 -12.308711,-25.89664 -24.28125,-26.625 -0.516131,-0.0314 -1.038341,-0.0371 -1.5625,-0.0312 z"
         style="fill:#000000;stroke:none;display:inline" />
      <path
         sodipodi:nodetypes="cssss"
         id="path3882"
         d="m -12.056198,435.69902 c -3.497282,5.55547 -5.50743,10.94888 -9.550944,10.94888 -4.043513,0 -6.441263,-3.80021 -6.441263,-8.92857 0,-5.12836 6.308374,-10.80094 10.351887,-10.80094 4.043514,0 8.5113348,4.21999 5.64032,8.78063 z"
         style="fill:#000000;fill-opacity:1;stroke:none;display:inline" />
    </g>
    <path
       style="fill:#ffffff;stroke:none;display:inline"
       d="m -62.125,500.65625 c 3.001738,-0.11046 5.337611,0.54839 6.0625,1.6875 -15.857048,8.15597 -18.981173,23.24478 -20.21875,39.375 -15.752721,-30.72951 3.435757,-40.66799 14.15625,-41.0625 z"
       id="path3737" />
    <path
       sodipodi:type="arc"
       style="fill:#ffffff;fill-opacity:1;stroke:none;display:inline"
       id="path3885"
       sodipodi:cx="39.107143"
       sodipodi:cy="441.64789"
       sodipodi:rx="1.9642857"
       sodipodi:ry="2.8571429"
       d="m 41.071429,441.64789 c 0,1.57795 -0.879441,2.85714 -1.964286,2.85714 -1.084845,0 -1.964285,-1.27919 -1.964285,-2.85714 0,-1.57796 0.87944,-2.85714 1.964285,-2.85714 1.084845,0 1.964286,1.27918 1.964286,2.85714 z"
       transform="matrix(1,0,0.125,1,-56.634556,-0.35714286)" />
    <path
       transform="matrix(0.77643197,0,0.01372057,0.8125,-55.340453,75.967244)"
       d="m 41.071429,441.64789 c 0,1.57795 -0.879441,2.85714 -1.964286,2.85714 -1.084845,0 -1.964285,-1.27919 -1.964285,-2.85714 0,-1.57796 0.87944,-2.85714 1.964285,-2.85714 1.084845,0 1.964286,1.27918 1.964286,2.85714 z"
       sodipodi:ry="2.8571429"
       sodipodi:rx="1.9642857"
       sodipodi:cy="441.64789"
       sodipodi:cx="39.107143"
       id="path3887"
       style="fill:#ffffff;fill-opacity:1;stroke:none;display:inline"
       sodipodi:type="arc"
       inkscape:transform-center-x="-40.761957"
       inkscape:transform-center-y="4.0624981" />
    <path
       style="fill:#000000;fill-opacity:1;stroke:none;display:inline"
       d="M 144.21875 135.5625 C 128.19838 136.95561 119.80689 157.87835 108.375 168.375 C 103.36079 172.979 84.30389 182.58534 89.46875 198.09375 C 91.899382 205.39216 97.171668 206.85139 101.53125 209.28125 C 107.50301 212.60968 117.86111 208.4077 119.59375 205.71875 C 130.22589 189.21834 137.43472 181.47299 143.65625 164.625 C 145.31507 160.13287 152.023 157.15437 150.46875 152.625 C 148.92768 148.13404 148.69423 135.17332 144.21875 135.5625 z M 168.1875 136 C 166.4025 135.9475 164.81586 136.58977 163.625 138.3125 C 154.43142 151.61214 150.89977 168.85011 145.0625 184.03125 C 141.53929 193.19416 131.68822 201.56353 133.625 211.1875 C 135.23603 219.19283 143.37944 225.72656 151.125 228.3125 C 166.72808 233.52176 187.69754 236.36715 199.34375 224.75 C 208.86789 215.24962 211.10992 195.39811 204 181.53125 C 196.90105 167.68578 193.49216 151.22355 180.78125 142.25 C 177.01732 139.59277 172.11451 136.1154 168.1875 136 z M 127.78125 170 C 129.36989 169.99735 130.21845 170.76453 129.15625 172.71875 C 125.80883 178.8773 113.55493 198.66629 109.34375 200.8125 C 105.92813 202.55326 102.335 195.80378 102.8125 192 C 103.54344 186.17739 116.04518 175.4052 122.03125 171.84375 C 123.86387 170.75341 126.19261 170.00265 127.78125 170 z M 168.71875 172.53125 C 172.98609 172.59005 176.49879 178.4596 178.625 182.59375 C 182.43206 189.99611 182.10297 194.18446 185.0625 202.96875 C 186.67509 207.75516 186.45972 211.01061 174.34375 212.25 C 165.33609 213.17143 154.42178 211.83047 152.5625 202.96875 C 151.31327 197.01466 156.62955 186.40093 161.5 178.3125 C 164.06175 174.05816 166.48347 172.50046 168.71875 172.53125 z "
       transform="translate(-130.06139,245.45938)"
       id="path3743" />
  </g>
</svg>
